HIERARCHY
ROOT Hips
{
	OFFSET 0.000000 0.000000 0.000000
	CHANNELS 6 Xposition Yposition Zposition Zrotation Yrotation Xrotation 
	JOINT LowerBack
	{
		OFFSET 0.000000 0.000000 0.000000
		CHANNELS 3 Zrotation Yrotation Xrotation
		JOINT Spine
		{
			OFFSET 0.028270 2.035590 -0.193380
			CHANNELS 3 Zrotation Yrotation Xrotation
			JOINT Spine1
			{
				OFFSET 0.056720 2.048850 -0.042750
				CHANNELS 3 Zrotation Yrotation Xrotation
				JOINT Neck
				{
					OFFSET 0.000000 0.000000 0.000000
					CHANNELS 3 Zrotation Yrotation Xrotation
					JOINT Neck1
					{
						OFFSET -0.054170 1.746240 0.172020
						CHANNELS 3 Zrotation Yrotation Xrotation
						JOINT Head
						{
							OFFSET 0.104070 1.761360 -0.123970
							CHANNELS 3 Zrotation Yrotation Xrotation
							End Site
							{
								OFFSET 0.000000 0.000000 0.000000
							}
						}
					}
				}
				JOINT LeftShoulder
				{
					OFFSET 0.000000 0.000000 0.000000
					CHANNELS 3 Zrotation Yrotation Xrotation
					JOINT LeftArm
					{
						OFFSET 3.362410 1.200890 -0.311210
						CHANNELS 3 Zrotation Yrotation Xrotation
						JOINT LeftForeArm
						{
							OFFSET 4.983000 -0.000000 -0.000000
							CHANNELS 3 Zrotation Yrotation Xrotation
							JOINT LeftHand
							{
								OFFSET 3.483560 -0.000000 -0.000000
								CHANNELS 3 Zrotation Yrotation Xrotation
								JOINT LeftFingerBase
								{
									OFFSET 0.000000 0.000000 0.000000
									CHANNELS 3 Zrotation Yrotation Xrotation
									JOINT LeftHandIndex1
									{
										OFFSET 0.715260 -0.000000 -0.000000
										CHANNELS 3 Zrotation Yrotation Xrotation
										End Site
										{
											OFFSET 0.000000 0.000000 0.000000
										}
									}
								}
								JOINT LThumb
								{
									OFFSET 0.000000 0.000000 0.000000
									CHANNELS 3 Zrotation Yrotation Xrotation
									End Site
									{
										OFFSET 0.000000 0.000000 0.000000
									}
								}
							}
						}
					}
				}
				JOINT RightShoulder
				{
					OFFSET 0.000000 0.000000 0.000000
					CHANNELS 3 Zrotation Yrotation Xrotation
					JOINT RightArm
					{
						OFFSET -3.136600 1.374050 -0.404650
						CHANNELS 3 Zrotation Yrotation Xrotation
						JOINT RightForeArm
						{
							OFFSET -5.241900 -0.000000 -0.000000
							CHANNELS 3 Zrotation Yrotation Xrotation
							JOINT RightHand
							{
								OFFSET -3.444170 -0.000000 -0.000000
								CHANNELS 3 Zrotation Yrotation Xrotation
								JOINT RightFingerBase
								{
									OFFSET 0.000000 0.000000 0.000000
									CHANNELS 3 Zrotation Yrotation Xrotation
									JOINT RightHandIndex1
									{
										OFFSET -0.622530 -0.000000 -0.000000
										CHANNELS 3 Zrotation Yrotation Xrotation
										End Site
										{
											OFFSET 0.000000 0.000000 0.000000
										}
									}
								}
								JOINT RThumb
								{
									OFFSET 0.000000 0.000000 0.000000
									CHANNELS 3 Zrotation Yrotation Xrotation
									End Site
									{
										OFFSET 0.000000 0.000000 0.000000
									}
								}
							}
						}
					}
				}
			}
		}
	}
}
}
MOTION
Frames: 10
Frame Time: 0.008333
1.892931 17.718010 3.243458 -33.184900 -17.433104 41.158192 21.457460 -0.177809 -8.765517 3.712584 -2.873550 -4.537213 -7.371081 -2.845765 -0.654731 24.535797 -13.968499 -6.809315 -1.154518 -0.093099 -0.014790 0.000000 0.000000 0.000000 4.188366 -1.896362 0.806084 -89.110571 -8.874194 15.373882 -1.104583 -34.358045 -0.035731 11.363634 -4.624042 -0.486000 -0.091041 0.225339 0.000000 0.000000 0.000000 0.000000 0.000000 0.000000 0.000000 12.528463 -9.693240 0.002420 37.965267 10.570010 -14.407648 178.935539 63.354427 179.916837 -14.992944 14.343572 -2.051602 0.412576 -0.752689 -0.000000 0.000000 0.000000 0.000000 0.000000 0.000000 0.000000 
1.894122 17.711796 3.252916 -33.456463 -17.718157 41.394112 21.414337 -0.122772 -8.805408 3.692225 -2.808014 -4.547307 -7.381366 -2.774557 -0.640636 24.439058 -13.791921 -6.739120 -1.184009 -0.096351 0.006367 0.000000 0.000000 0.000000 4.107558 -1.788453 0.816954 -88.870957 -8.587376 15.409910 -1.106511 -34.578881 -0.035174 11.266643 -4.510857 -0.470395 -0.090291 0.223193 0.000000 0.000000 0.000000 0.000000 0.000000 0.000000 0.000000 12.616478 -9.509484 -0.003208 37.694059 11.049608 -14.668214 178.978723 63.917560 179.915640 -15.078647 14.246435 -2.048532 0.409397 -0.746885 -0.000000 0.000000 0.000000 0.000000 0.000000 0.000000 0.000000 
1.894898 17.704328 3.260343 -33.783649 -18.086152 41.616082 21.386750 -0.064768 -8.776500 3.672018 -2.734231 -4.542163 -7.395483 -2.694416 -0.628018 24.304994 -13.587094 -6.658029 -1.216072 -0.099917 0.031090 0.000000 0.000000 0.000000 3.978608 -1.638059 0.833247 -88.564300 -8.331768 15.411101 -1.108540 -34.780862 -0.034709 11.202204 -4.425329 -0.458990 -0.089577 0.221097 0.000000 0.000000 0.000000 0.000000 0.000000 0.000000 0.000000 12.672270 -9.292714 -0.018946 37.462771 11.557798 -14.890292 179.026922 64.475320 179.914119 -15.168590 14.152026 -2.046267 0.405734 -0.741841 -0.000000 0.000000 0.000000 0.000000 0.000000 0.000000 0.000000 
1.894649 17.695704 3.265581 -34.123134 -18.508226 41.825267 21.353010 -0.015360 -8.706707 3.647301 -2.660383 -4.532148 -7.412798 -2.613663 -0.620357 24.138504 -13.357382 -6.567300 -1.250929 -0.103810 0.059308 0.000000 0.000000 0.000000 3.813503 -1.474136 0.855842 -88.195080 -8.091125 15.357272 -1.110999 -34.963581 -0.034349 11.176901 -4.371756 -0.452387 -0.088913 0.219055 0.000000 0.000000 0.000000 0.000000 0.000000 0.000000 0.000000 12.702728 -9.051885 -0.043089 37.267244 12.077133 -15.072733 179.077727 65.015744 179.912361 -15.263443 14.061367 -2.045206 0.401828 -0.737450 -0.000000 0.000000 0.000000 0.000000 0.000000 0.000000 0.000000 
1.891681 17.686606 3.267926 -34.429538 -18.962190 41.979080 21.265131 0.011190 -8.592342 3.610093 -2.597658 -4.513826 -7.435160 -2.544450 -0.613060 23.963360 -13.119985 -6.475638 -1.289611 -0.107985 0.088658 0.000000 0.000000 0.000000 3.645640 -1.300265 0.882744 -87.769721 -7.882412 15.265108 -1.116809 -35.095134 -0.034089 11.197550 -4.357313 -0.451584 -0.088580 0.217094 -0.000000 0.000000 0.000000 0.000000 0.000000 0.000000 0.000000 12.744169 -8.811659 -0.075861 37.102367 12.608895 -15.216146 179.128676 65.529830 179.910453 -15.364965 13.976563 -2.045647 0.397929 -0.733615 -0.000000 0.000000 0.000000 0.000000 0.000000 0.000000 0.000000 
1.885854 17.677364 3.267558 -34.681470 -19.425839 42.064277 21.113585 0.011686 -8.442377 3.559540 -2.550383 -4.488853 -7.462004 -2.491624 -0.606374 23.786265 -12.884116 -6.385765 -1.331741 -0.112385 0.118377 0.000000 0.000000 0.000000 3.482816 -1.133807 0.913339 -87.298396 -7.705694 15.129320 -1.126074 -35.159426 -0.033926 11.266652 -4.381643 -0.456581 -0.088578 0.215171 -0.000000 0.000000 0.000000 0.000000 0.000000 0.000000 0.000000 12.803342 -8.584076 -0.115451 36.961999 13.141156 -15.324562 179.178398 66.010060 179.908458 -15.472822 13.898499 -2.047886 0.394179 -0.730260 -0.000000 0.000000 0.000000 0.000000 0.000000 0.000000 0.000000 
1.877145 17.668299 3.264849 -34.860620 -19.878973 42.087755 20.896370 -0.011660 -8.279320 3.496391 -2.519838 -4.460619 -7.491891 -2.456663 -0.596606 23.612214 -12.663764 -6.303678 -1.376127 -0.116851 0.146719 0.000000 0.000000 0.000000 3.328413 -0.975893 0.946206 -86.794591 -7.573868 14.960683 -1.139346 -35.131413 -0.033843 11.384668 -4.442329 -0.467279 -0.088947 0.213205 -0.000000 0.000000 0.000000 0.000000 0.000000 0.000000 0.000000 12.883187 -8.384544 -0.160512 36.839577 13.668589 -15.403355 179.225783 66.454961 179.906444 -15.586199 13.827757 -2.051824 0.390701 -0.727303 -0.000000 0.000000 0.000000 0.000000 0.000000 0.000000 0.000000 
1.865837 17.659857 3.260244 -34.966479 -20.313296 42.058493 20.614566 -0.054113 -8.117462 3.420921 -2.503566 -4.432672 -7.524985 -2.437304 -0.586908 23.447973 -12.458388 -6.226706 -1.423064 -0.121457 0.174346 0.000000 0.000000 0.000000 3.188562 -0.851840 0.980821 -86.270062 -7.469996 14.731601 -1.155441 -35.011571 -0.033820 11.547581 -4.533281 -0.483078 -0.089509 0.211082 -0.000000 0.000000 0.000000 0.000000 0.000000 0.000000 0.000000 12.989435 -8.211172 -0.207450 36.727110 14.170021 -15.458881 179.269647 66.858785 179.904461 -15.705248 13.763944 -2.057457 0.387653 -0.724645 -0.000000 0.000000 0.000000 0.000000 0.000000 0.000000 0.000000 
1.852644 17.652137 3.254569 -34.994162 -20.706728 41.998951 20.284838 -0.108785 -7.984531 3.337535 -2.499927 -4.408769 -7.558702 -2.431644 -0.570443 23.291814 -12.286625 -6.163419 -1.469725 -0.125889 0.198729 0.000000 0.000000 0.000000 3.055448 -0.744616 1.015077 -85.741211 -7.419936 14.470733 -1.174949 -34.772403 -0.033824 11.749872 -4.647681 -0.503279 -0.090284 0.208721 -0.000000 0.000000 0.000000 0.000000 0.000000 0.000000 0.000000 13.110667 -8.082002 -0.256269 36.623077 14.647523 -15.497096 179.309632 67.224114 179.902556 -15.827541 13.707275 -2.064486 0.385065 -0.722270 -0.000000 0.000000 0.000000 0.000000 0.000000 0.000000 0.000000 
1.838017 17.645416 3.248431 -34.948606 -21.048659 41.920548 19.919836 -0.170677 -7.891571 3.248856 -2.506214 -4.391242 -7.592059 -2.436867 -0.547899 23.145508 -12.151368 -6.113435 -1.515104 -0.130086 0.219841 0.000000 0.000000 0.000000 2.929002 -0.663772 1.048121 -85.220541 -7.417338 14.167686 -1.197020 -34.415943 -0.033827 11.982110 -4.776693 -0.526583 -0.091108 0.206054 -0.000000 0.000000 0.000000 0.000000 0.000000 0.000000 0.000000 13.241837 -7.998048 -0.304956 36.525846 15.087777 -15.523848 179.345197 67.548794 179.900765 -15.951523 13.656614 -2.072509 0.383000 -0.720113 -0.000000 0.000000 0.000000 0.000000 0.000000 0.000000 0.000000 
